<?xml version="1.0" encoding="iso-8859-1"?>
<!-- Generator: Adobe Illustrator 16.0.0, SVG Export Plug-In . SVG Version: 6.00 Build 0)  -->
<!DOCTYPE svg PUBLIC "-//W3C//DTD SVG 1.1//EN" "http://www.w3.org/Graphics/SVG/1.1/DTD/svg11.dtd">
<svg version="1.1" id="Capa_1" xmlns="http://www.w3.org/2000/svg" xmlns:xlink="http://www.w3.org/1999/xlink" x="0px" y="0px"
	 width="365.59px" height="365.591px" viewBox="0 0 365.59 365.591" style="enable-background:new 0 0 365.59 365.591;"
	 xml:space="preserve">
<g>
	<g>
		<path fill = "#000" d="M355.458,7.443C350.59,2.574,344.062,0,336.577,0c-10.159,0-29.491,4.533-79.879,43.733
			c-33.747,26.256-74.202,62.585-113.913,102.295c-27.837,27.836-50.188,51.875-72.421,77.892
			c-18.55,2.251-36.082,13.324-48.41,30.67C3.752,280.201-1.852,316.067,6.176,355.579c0.913,4.495,4.216,8.13,8.604,9.468
			c1.199,0.366,2.427,0.544,3.645,0.544c3.237,0,6.404-1.259,8.777-3.599c11.396-11.235,23.931-13.215,39.803-15.723
			c12.541-1.979,26.756-4.228,42.625-11.598c22.469-10.438,35.61-28,35.663-47.387c23.235-20.316,47.308-42.907,71.574-67.177
			c43.822-43.822,82.673-87.574,109.393-123.195c13.451-17.933,23.277-33.097,29.208-45.071
			C359.488,43.723,370.167,22.154,355.458,7.443z M124.188,244.191c-3.499-3.498-7.218-6.6-11.107-9.264
			c17.399-19.7,35.844-39.223,57.613-60.992c38.499-38.498,77.571-73.614,110.022-98.883c9.644-7.508,18.572-14.036,26.546-19.419
			c-5.382,7.972-11.911,16.904-19.418,26.546c-25.267,32.447-60.383,71.521-98.883,110.021
			c-19.855,19.854-40.547,39.45-60.126,56.948C127.375,247.484,125.821,245.827,124.188,244.191z"/>
	</g>
</g>
<g>
</g>
<g>
</g>
<g>
</g>
<g>
</g>
<g>
</g>
<g>
</g>
<g>
</g>
<g>
</g>
<g>
</g>
<g>
</g>
<g>
</g>
<g>
</g>
<g>
</g>
<g>
</g>
<g>
</g>
</svg>
