<?xml version="1.0" encoding="iso-8859-1"?>
<!-- Generator: Adobe Illustrator 19.0.0, SVG Export Plug-In . SVG Version: 6.00 Build 0)  -->
<svg version="1.1" id="Layer_1" xmlns="http://www.w3.org/2000/svg" xmlns:xlink="http://www.w3.org/1999/xlink" x="0px" y="0px"
	 viewBox="0 0 325.524 325.524" style="enable-background:new 0 0 325.524 325.524;" xml:space="preserve">
<g>
	<path style="fill:#D9A460;" d="M149.46,2.242c7.314,4.101,19.29,4.101,26.605,0c7.317-4.101,17.959-2.417,23.652,3.745
		c5.689,6.161,17.074,9.86,25.299,8.222c8.227-1.641,17.826,3.251,21.334,10.868c3.51,7.62,13.195,14.657,21.525,15.639
		s15.949,8.603,16.932,16.933s8.02,18.016,15.639,21.525c7.617,3.509,12.51,13.107,10.871,21.333
		c-1.641,8.225,2.059,19.612,8.219,25.302c6.162,5.691,7.848,16.333,3.746,23.65c-4.102,7.315-4.102,19.29,0,26.605
		c4.102,7.317,2.416,17.959-3.746,23.65c-6.16,5.691-9.859,17.077-8.219,25.302c1.639,8.226-3.254,17.824-10.871,21.333
		c-7.619,3.51-14.656,13.195-15.639,21.525c-0.982,8.33-8.602,15.95-16.932,16.933c-8.33,0.981-18.016,8.02-21.525,15.639
		c-3.508,7.617-13.107,12.51-21.334,10.869c-8.225-1.638-19.609,2.061-25.299,8.221c-5.693,6.162-16.335,7.846-23.652,3.746
		c-7.315-4.102-19.291-4.102-26.605,0c-7.317,4.1-17.959,2.416-23.65-3.746c-5.691-6.16-17.077-9.858-25.302-8.221
		c-8.226,1.641-17.823-3.252-21.333-10.869c-3.508-7.618-13.195-14.657-21.523-15.639c-8.332-0.982-15.951-8.603-16.934-16.933
		c-0.983-8.33-8.02-18.016-15.64-21.525c-7.617-3.509-12.509-13.107-10.868-21.333c1.64-8.225-2.061-19.61-8.222-25.302
		c-6.162-5.691-7.846-16.333-3.746-23.65c4.102-7.315,4.102-19.29,0-26.605c-4.1-7.317-2.416-17.959,3.746-23.65
		c6.161-5.689,9.861-17.077,8.222-25.302c-1.641-8.226,3.251-17.824,10.868-21.333c7.62-3.51,14.656-13.195,15.64-21.525
		c0.982-8.33,8.602-15.95,16.934-16.933c8.328-0.981,18.016-8.019,21.523-15.639c3.51-7.617,13.107-12.509,21.333-10.868
		c8.225,1.639,19.61-2.061,25.302-8.222C131.501-0.175,142.143-1.858,149.46,2.242z"/>
	<circle style="fill:#997443;" cx="162.763" cy="162.762" r="141.337"/>
	<circle style="fill:#BF4132;" cx="162.762" cy="162.762" r="131.981"/>
	<path style="fill:#D9A460;" d="M51.89,91.145l182.49,182.49c12.189-7.892,22.998-17.736,31.977-29.096L80.986,59.167
		C69.626,68.146,59.782,78.954,51.89,91.145z M30.782,162.762c0,9.997,1.118,19.731,3.224,29.091l99.666,99.667
		c9.361,2.105,19.096,3.224,29.092,3.224c10.832,0,21.355-1.314,31.428-3.775L34.557,131.333
		C32.096,141.406,30.782,151.93,30.782,162.762z M294.45,154.038L171.487,31.074c-2.885-0.188-5.792-0.294-8.724-0.294
		c-15.738,0-30.832,2.76-44.828,7.814L286.929,207.59c5.055-13.996,7.815-29.09,7.815-44.828
		C294.743,159.83,294.638,156.923,294.45,154.038z"/>
	<path style="fill:#B3874F;" d="M118.08,157.334l44.276,44.277l30.537-30.537l-44.277-44.276L118.08,157.334z M133.596,111.777
		L89.319,67.5L58.782,98.036l44.277,44.277L133.596,111.777z M192.892,52.481l-21.405-21.406c-2.885-0.188-5.792-0.294-8.724-0.294
		c-15.572,0-30.512,2.706-44.383,7.659l-0.3,0.3l44.276,44.276L192.892,52.481z M221.654,142.314l30.537-30.536L207.911,67.5
		l-30.535,30.536L221.654,142.314z M177.378,216.632l44.275,44.276l30.537-30.537l-44.277-44.275L177.378,216.632z M294.45,154.038
		l-27.24-27.24l-30.537,30.536l44.277,44.276l10.797-10.797c1.959-9.041,2.996-18.425,2.996-28.052
		C294.743,159.83,294.638,156.923,294.45,154.038z M34.557,131.333c-2.461,10.073-3.775,20.597-3.775,31.429
		c0,9.997,1.118,19.731,3.224,29.091l9.758,9.758l30.535-30.536L34.557,131.333z M118.08,275.929l15.591,15.591
		c9.361,2.105,19.096,3.224,29.092,3.224c9.631,0,19.017-1.045,28.061-3.005l2.068-2.069l-44.275-44.276L118.08,275.929z
		 M89.319,186.096l-30.536,30.535l44.278,44.277l30.535-30.536L89.319,186.096z"/>
	<path style="fill:#D9A460;" d="M162.763,30.78c-8.704,0-17.209,0.851-25.443,2.46L33.241,137.319
		c-1.608,8.233-2.46,16.738-2.46,25.442c0,11.659,1.519,22.964,4.357,33.732L196.493,35.138
		C185.727,32.299,174.422,30.78,162.763,30.78z M287.681,120.067L120.069,287.681c13.392,4.575,27.752,7.063,42.694,7.063
		c3.995,0,7.945-0.188,11.85-0.535l119.596-119.597c0.348-3.904,0.535-7.855,0.535-11.85
		C294.743,147.819,292.257,133.459,287.681,120.067z M236.118,53.034L53.035,236.118c8.073,12.052,18.081,22.696,29.576,31.497
		L267.616,82.61C258.816,71.115,248.171,61.106,236.118,53.034z"/>
</g>
<g>
</g>
<g>
</g>
<g>
</g>
<g>
</g>
<g>
</g>
<g>
</g>
<g>
</g>
<g>
</g>
<g>
</g>
<g>
</g>
<g>
</g>
<g>
</g>
<g>
</g>
<g>
</g>
<g>
</g>
</svg>
