<?xml version="1.0" encoding="iso-8859-1"?>
<!-- Generator: Adobe Illustrator 18.0.0, SVG Export Plug-In . SVG Version: 6.00 Build 0)  -->
<!DOCTYPE svg PUBLIC "-//W3C//DTD SVG 1.1//EN" "http://www.w3.org/Graphics/SVG/1.1/DTD/svg11.dtd">
<svg version="1.1" id="Capa_1" xmlns="http://www.w3.org/2000/svg" xmlns:xlink="http://www.w3.org/1999/xlink" x="0px" y="0px"
	 viewBox="0 0 433.296 433.296" style="enable-background:new 0 0 433.296 433.296;" xml:space="preserve">
<g>
	<path d="M422.465,110.856c6.29,0.21,10.88,6.23,10.83,14.22c-0.06,9.97-8.14,18.74-16.87,18.29c-7-0.35-13.72-7.02-13.67-13.58
		C402.805,120.826,413.495,110.566,422.465,110.856z M422.385,133.176c2.9-3.69,4.26-8.39,0.31-14.51
		c-3.84,1.29-7.82,1.69-10.38,3.79c-2.07,1.71-3.5,5.58-3.25,8.32c0.19,2.18,3.16,5.57,5.19,5.8
		C416.875,136.866,420.735,135.276,422.385,133.176z"/>
	<path d="M430.055,198.366c0.26,1.77-2.8,4.02-5.61,7.6c-2.41-3.99-4.71-6.19-4.77-8.45c-0.04-1.49,3.58-4.6,4.82-4.26
		C426.765,193.886,429.755,196.336,430.055,198.366z"/>
	<path style="fill:#8C6239;" d="M422.695,118.666c3.95,6.12,2.59,10.82-0.31,14.51c-1.65,2.1-5.51,3.69-8.13,3.4
		c-2.03-0.23-5-3.62-5.19-5.8c-0.25-2.74,1.18-6.61,3.25-8.32C414.875,120.356,418.855,119.956,422.695,118.666z"/>
	<path d="M414.995,158.246c4.14,0.62,7.34,4.36,7.06,8.25c-0.32,4.2-3.94,7-8.35,6.45c-4.1-0.51-7.32-4.22-7.09-8.17
		C406.855,160.846,410.955,157.646,414.995,158.246z"/>
	<path d="M412.105,60.476c4.27,6.6,4.61,13.86,0.9,20.98c-3.6,6.92-9.38,10.06-16.46,9.4c-16.99-0.96-26.39-14.9-19.58-28.02
		c2.12-4.09,4.89-7.22,10.06-7.37c2.51-0.07,4.98-1.02,7.49-1.35C401.465,53.186,408.045,54.216,412.105,60.476z M406.075,71.216
		c0.01-8.1-3.69-10.89-14.22-10.74c-5.63,0.08-9.39,4.11-9.26,9.93c0.13,6.36,7.22,12.21,14.67,12.1
		C403.365,82.416,406.065,78.966,406.075,71.216z"/>
	<path style="fill:#8C6239;" d="M391.855,60.476c10.53-0.15,14.23,2.64,14.22,10.74c-0.01,7.75-2.71,11.2-8.81,11.29
		c-7.45,0.11-14.54-5.74-14.67-12.1C382.465,64.586,386.225,60.556,391.855,60.476z"/>
	<path d="M389.785,208.986c0.44,9.42,0.18,19.38-2.4,28.33c-5.67,19.63-8.78,39.43-9.6,59.77c-0.26,6.55-1.78,13.13-3.38,19.53
		c-2.93,11.77-6.01,23.53-9.7,35.07c-1.87,5.85-4.38,11.9-8.19,16.57c-2.65,3.26-7.86,4.69-12.18,6.27
		c-4.38,1.6-9.13,2.16-13.6,3.58c-10.87,3.44-21.53,7.64-32.54,10.58c-15.2,4.06-30.74,4.73-45.7-0.86
		c-12.24-4.57-24.36-4.49-36.81-1.98c-13.25,2.67-26.36,2.06-39.19-2.31c-15.45-5.26-31.43-7.79-47.61-8.81
		c-14.92-0.94-27.61-6.49-39.42-15.46c-10.52-7.98-21.51-15.48-32.89-22.16c-20.05-11.75-31.47-29.77-37.4-51.24
		c-3.34-12.08-6.31-24.09-11.68-35.52c-14.78-31.42-7.15-69.24,18.03-93.38c7.66-7.35,14.29-15.78,21.82-23.28
		c5.44-5.43,11.07-10.97,17.53-15.01c18.41-11.52,38.17-19.17,60.54-17.26c1.82,0.16,3.71,0.19,5.51-0.09
		c15.79-2.48,30.93-1.55,45.08,9.7c1.07-5.38,1.71-8.6,2.34-11.82c6.31-31.83,26.32-51.72,55.52-63.5
		c15.13-6.1,30.53-11.06,47.22-9.17c4.73,0.53,9.91,0.31,14.05,2.24c14.65,6.82,29.17,14.02,43.29,21.89
		c7.45,4.14,11.04,11.91,12.33,20.16c1.64,10.55,6.84,18.08,15.71,24.08c12.86,8.69,17.76,21.5,18.4,36.98
		C385.925,157.606,388.575,183.266,389.785,208.986z M374.515,237.666c2.35-7.55,3.05-15.96,2.74-23.91
		c-1.04-27.2-2.74-54.38-4.44-81.55c-0.7-11.33-3.56-22.21-13.62-28.91c-11.52-7.67-17.82-18.23-20.48-31.45
		c-1.57-7.78-6.33-13.04-13.33-16.59c-8.87-4.49-17.58-9.3-26.47-13.76c-2.93-1.47-6.1-2.83-9.31-3.3
		c-24.89-3.72-47.67,2.93-68.1,16.51c-16.7,11.1-28.56,26.5-32.27,47.01c-0.26,1.44-0.89,2.8-1.36,4.2
		c-3.86,11.75-7.6,14.32-18.46,9.19c-12.51-5.91-25.03-4.74-37.86-3.37c-2.55,0.28-5.08,0.93-7.64,1.01
		c-30.15,0.93-54.41,13.66-73.93,36.32c-4.06,4.72-8.86,8.8-13.4,13.1c-13.6,12.89-21.44,28.69-23.92,47.2
		c-0.03,0.26,0.88,0.66,1.58,1.15c5.59-7.33,9.26-16.1,16.82-21.74c-3.84,7.17-7.58,14.45-12.64,20.65
		c-8.58,10.52-6.54,21.01-1.65,31.91c1.05,2.35,2.05,4.74,3.26,7.01c5.43,10.17,8.5,21.01,10.71,32.32
		c3.38,17.21,12.38,31.71,26.22,42.22c9.16,6.96,20.03,11.66,30.34,17.49c7.84-11.73,13.97-23.93,22.34-34.53
		c0.73,0.46,1.45,0.93,2.17,1.39c-6.71,12.14-13.43,24.28-20.2,36.53c10.39,11.61,22.75,17.64,37.74,19.29
		c13.49,1.49,27.3,2.57,40.16,6.47c19.68,5.97,38.94,7.02,58.54,1.83c5.62-7.72,11.22-15.4,16.81-23.09
		c0.66,0.53,1.33,1.05,1.99,1.57c-4.22,6.91-8.43,13.83-12.75,20.9c12.95,3.22,24.59,6.11,35.84,8.91
		c9.39-16.82,9.98-17.57,16.6-21.41c-2.5,7.16-9.43,12.07-10.31,20.36c10.85,1.3,20.18-2.35,29.66-5.11
		c8.81-2.56,17.49-5.87,26.48-7.45c12.27-2.15,15.66-4.33,18.96-16.26c2.94-10.64,6.05-21.23,8.58-31.97
		c2.02-8.56,3.8-17.25,4.76-25.98C366.685,273.516,368.995,255.386,374.515,237.666z"/>
	<path style="fill:#8C6239;" d="M377.255,213.756c0.31,7.95-0.39,16.36-2.74,23.91c-5.52,17.72-7.83,35.85-9.84,54.16
		c-0.96,8.73-2.74,17.42-4.76,25.98c-2.53,10.74-5.64,21.33-8.58,31.97c-3.3,11.93-6.69,14.11-18.96,16.26
		c-8.99,1.58-17.67,4.89-26.48,7.45c-9.48,2.76-18.81,6.41-29.66,5.11c0.88-8.29,7.81-13.2,10.31-20.36
		c-6.62,3.84-7.21,4.59-16.6,21.41c-11.25-2.8-22.89-5.69-35.84-8.91c4.32-7.07,8.53-13.99,12.75-20.9
		c-0.66-0.52-1.33-1.04-1.99-1.57c-5.59,7.69-11.19,15.37-16.81,23.09c-19.6,5.19-38.86,4.14-58.54-1.83
		c-12.86-3.9-26.67-4.98-40.16-6.47c-14.99-1.65-27.35-7.68-37.74-19.29c6.77-12.25,13.49-24.39,20.2-36.53
		c-0.72-0.46-1.44-0.93-2.17-1.39c-8.37,10.6-14.5,22.8-22.34,34.53c-10.31-5.83-21.18-10.53-30.34-17.49
		c-13.84-10.51-22.84-25.01-26.22-42.22c-2.21-11.31-5.28-22.15-10.71-32.32c-1.21-2.27-2.21-4.66-3.26-7.01
		c-4.89-10.9-6.93-21.39,1.65-31.91c5.06-6.2,8.8-13.48,12.64-20.65c-7.56,5.64-11.23,14.41-16.82,21.74
		c-0.7-0.49-1.61-0.89-1.58-1.15c2.48-18.51,10.32-34.31,23.92-47.2c4.54-4.3,9.34-8.38,13.4-13.1
		c19.52-22.66,43.78-35.39,73.93-36.32c2.56-0.08,5.09-0.73,7.64-1.01c12.83-1.37,25.35-2.54,37.86,3.37
		c10.86,5.13,14.6,2.56,18.46-9.19c0.47-1.4,1.1-2.76,1.36-4.2c3.71-20.51,15.57-35.91,32.27-47.01
		c20.43-13.58,43.21-20.23,68.1-16.51c3.21,0.47,6.38,1.83,9.31,3.3c8.89,4.46,17.6,9.27,26.47,13.76c7,3.55,11.76,8.81,13.33,16.59
		c2.66,13.22,8.96,23.78,20.48,31.45c10.06,6.7,12.92,17.58,13.62,28.91C374.515,159.376,376.215,186.556,377.255,213.756z
		 M336.705,154.526c0.06-4.63-5.49-10.06-10.12-9.91c-4.12,0.14-7.36,3.74-7.28,8.09c0.1,5.02,4.23,9.16,9.16,9.16
		C332.635,161.876,336.665,158.286,336.705,154.526z M327.435,269.236c0.09-3.72-3.59-7.51-7.64-7.85c-4.06-0.34-7.9,3.03-8.08,7.08
		c-0.18,3.77,3.5,7.59,7.56,7.87C323.265,276.616,327.345,273.056,327.435,269.236z M294.435,124.536
		c6.63-0.21,10.87-3.46,10.26-7.93c-0.62-4.46-3.8-6-7.95-5.91c-4.71,0.1-10.04,4.53-9.99,8.65
		C286.815,124.786,291.175,124.206,294.435,124.536z M300.815,220.676c3.41-7.82-2.55-15.36-11.76-14.67
		c-8.42,0.63-17.8,14.23-15.21,22.19c1.7,5.25,5.71,7.35,11.1,7C292.295,235.016,296.885,229.696,300.815,220.676z M285.795,174.286
		c4.72-0.13,8.94-5.28,8.91-10.86c-0.04-5.36-4.64-10-9.79-9.86c-4.68,0.12-8.98,4.6-9.05,9.4
		C275.795,168.596,280.915,174.426,285.795,174.286z M274.045,275.816c3.36-9.39,0.33-18.06-8.32-23.81
		c-8.22-5.47-17.07-5.02-24.44,1.28c-6.51,5.56-9.41,13.09-10.95,21.16c-2.32,12.14,5.92,21.81,18.42,22.01
		C260.805,296.646,268.955,289.996,274.045,275.816z M262.345,358.796c-0.94-0.42-1.72-0.96-1.89-0.81
		c-3.77,3.32-7.14,6.93-7.51,12.54C256.055,366.646,259.165,362.776,262.345,358.796z M259.665,127.826
		c-2.05-4.55-3.5-9.51-6.29-13.54c-3.46-5-8.66-8.01-15.15-6.47c-9.02,2.15-19.26,16.06-17.66,25.23c0.73,4.25,3.49,9,6.8,11.75
		c5.84,4.86,12.95,4.38,19.62,0.76C253.795,141.846,258.685,136.766,259.665,127.826z M222.225,221.136
		c17.91,0.35,30.11-10.7,28.34-24.39c-0.79-6.07-3.21-11.99-5.34-17.81c-2.28-6.23-7.66-8.7-13.76-9.48
		c-15.52-1.99-33.06,8.99-38.29,23.76c-3.09,8.71-1.21,14.96,6.45,20.03C207.115,218.196,215.495,220.696,222.225,221.136z
		 M240.935,326.876c3.78,0.29,6.66-3.01,6.53-7.05c-0.15-4.62-4.11-8.97-7.99-8.79c-3.67,0.17-7.48,4.68-6.75,8.42
		C233.575,323.836,236.415,326.536,240.935,326.876z M206.815,367.266c6.76-9.48,12.28-17.23,17.81-24.99
		C211.495,351.936,207.295,358.146,206.815,367.266z M205.435,273.466c0.01-8.15-3.24-15.74-8.79-20.5
		c-9.28-7.96-21.27-6.18-26.8,4.67c-2.41,4.72-3.79,10.36-4.11,15.68c-0.75,12.79,6.75,21.19,18.14,21.47
		C195.835,295.086,205.405,285.616,205.435,273.466z M196.325,336.996c-0.65-0.45-1.31-0.91-1.96-1.37
		c-6.97,9.48-13.94,18.96-20.9,28.44c1.05,0.85,2.11,1.7,3.17,2.54C183.695,357.076,191.335,347.936,196.325,336.996z
		 M170.345,177.056c7.98-0.06,14.47-5.52,14.33-12.08c-0.14-7.13-8.65-15.83-15.63-15.98c-7.49-0.17-14.58,7.51-14.12,15.3
		C155.325,171.216,162.445,177.106,170.345,177.056z M158.575,361.756c4.39-7.85,8.02-14.32,11.64-20.8
		C161.465,348.056,158.605,353.496,158.575,361.756z M126.695,250.066c24.57,0.57,38.01-19.38,29.56-39.26
		c-0.71-1.68-1-3.53-1.55-5.28c-3.66-11.52-13.1-16.43-23.58-19.19c-3.26-0.86-8,0.99-11.1,3.05c-4.82,3.21-8.96,7.51-13.13,11.6
		c-9.6,9.38-12.93,21.77-8.5,31.98C103.755,245.306,114.175,249.516,126.695,250.066z M137.575,353.526
		c5.61-9.78,11.23-19.56,16.84-29.35c-0.85-0.46-1.71-0.92-2.57-1.39c-5.29,9.94-13.08,18.52-16.51,29.48
		C136.085,352.686,136.825,353.106,137.575,353.526z M109.685,352.626c6.11-10.31,12.23-20.62,18.35-30.93
		C114.185,334.886,108.875,344.266,109.685,352.626z M120.415,166.006c0.35-3.62-3.53-7.31-7.9-7.5c-4.1-0.18-8.26,3.27-8.05,7.25
		c0.2,3.72,1.2,7.38,6.15,7.45C115.125,173.276,120.065,169.646,120.415,166.006z M109.385,275.226c0.29-3.97-3.29-7.4-7.84-7.51
		c-4.37-0.1-8.23,3.22-8.3,7.15c-0.08,3.83,3.88,7.81,7.78,7.83C104.925,282.716,109.105,278.986,109.385,275.226z M74.255,325.416
		c6.35-8.31,12.04-16.98,14.77-27.3C82.705,306.436,76.225,314.666,74.255,325.416z M59.815,317.426
		c4.49-10.1,8.97-20.19,13.45-30.29c-0.72-0.33-1.45-0.67-2.17-1c-4.11,8.11-8.29,16.19-12.28,24.37c-0.89,1.82-1.13,3.97-1.68,5.97
		C58.035,316.796,58.925,317.116,59.815,317.426z M47.885,299.336c6.14-11.61,14.02-22.37,16.72-35.64
		C57.645,274.906,50.175,285.866,47.885,299.336z M37.925,280.456c6.49-14.72,14.77-25.7,19.5-41.07
		C45.225,254.626,37.655,269.836,37.925,280.456z M28.075,255.346c5.82-11.18,11.64-22.36,17.46-33.54c-0.67-0.34-1.34-0.68-2-1.02
		c-6.64,10.78-14.62,20.85-17.58,33.54C26.665,254.666,27.365,255.006,28.075,255.346z M20.345,236.536
		c10.19-17.26,19.36-32.79,28.53-48.32C30.495,207.896,20.535,225.176,20.345,236.536z"/>
	<path style="fill:#C69C6D;" d="M326.585,144.616c4.63-0.15,10.18,5.28,10.12,9.91c-0.04,3.76-4.07,7.35-8.24,7.34
		c-4.93,0-9.06-4.14-9.16-9.16C319.225,148.356,322.465,144.756,326.585,144.616z"/>
	<path style="fill:#C69C6D;" d="M319.795,261.386c4.05,0.34,7.73,4.13,7.64,7.85c-0.09,3.82-4.17,7.38-8.16,7.1
		c-4.06-0.28-7.74-4.1-7.56-7.87C311.895,264.416,315.735,261.046,319.795,261.386z"/>
	<path style="fill:#C69C6D;" d="M304.695,116.606c0.61,4.47-3.63,7.72-10.26,7.93c-3.26-0.33-7.62,0.25-7.68-5.19
		c-0.05-4.12,5.28-8.55,9.99-8.65C300.895,110.606,304.075,112.146,304.695,116.606z"/>
	<path style="fill:#C69C6D;" d="M289.055,206.006c9.21-0.69,15.17,6.85,11.76,14.67c-3.93,9.02-8.52,14.34-15.87,14.52
		c-5.39,0.35-9.4-1.75-11.1-7C271.255,220.236,280.635,206.636,289.055,206.006z"/>
	<path style="fill:#C69C6D;" d="M294.705,163.426c0.03,5.58-4.19,10.73-8.91,10.86c-4.88,0.14-10-5.69-9.93-11.32
		c0.07-4.8,4.37-9.28,9.05-9.4C290.065,153.426,294.665,158.066,294.705,163.426z"/>
	<path style="fill:#C69C6D;" d="M265.725,252.006c8.65,5.75,11.68,14.42,8.32,23.81c-5.09,14.18-13.24,20.83-25.29,20.64
		c-12.5-0.2-20.74-9.87-18.42-22.01c1.54-8.07,4.44-15.6,10.95-21.16C248.655,246.986,257.505,246.536,265.725,252.006z"/>
	<path d="M260.455,357.986c0.17-0.15,0.95,0.39,1.89,0.81c-3.18,3.98-6.29,7.85-9.4,11.73
		C253.315,364.916,256.685,361.306,260.455,357.986z"/>
	<path style="fill:#C69C6D;" d="M253.375,114.286c2.79,4.03,4.24,8.99,6.29,13.54c-0.98,8.94-5.87,14.02-12.68,17.73
		c-6.67,3.62-13.78,4.1-19.62-0.76c-3.31-2.75-6.07-7.5-6.8-11.75c-1.6-9.17,8.64-23.08,17.66-25.23
		C244.715,106.276,249.915,109.286,253.375,114.286z"/>
	<path style="fill:#C69C6D;" d="M250.565,196.746c1.77,13.69-10.43,24.74-28.34,24.39c-6.73-0.44-15.11-2.94-22.6-7.89
		c-7.66-5.07-9.54-11.32-6.45-20.03c5.23-14.77,22.77-25.75,38.29-23.76c6.1,0.78,11.48,3.25,13.76,9.48
		C247.355,184.756,249.775,190.676,250.565,196.746z"/>
	<path style="fill:#C69C6D;" d="M247.465,319.826c0.13,4.04-2.75,7.34-6.53,7.05c-4.52-0.34-7.36-3.04-8.21-7.42
		c-0.73-3.74,3.08-8.25,6.75-8.42C243.355,310.856,247.315,315.206,247.465,319.826z"/>
	<path d="M224.625,342.276c-5.53,7.76-11.05,15.51-17.81,24.99C207.295,358.146,211.495,351.936,224.625,342.276z"/>
	<path style="fill:#C69C6D;" d="M196.645,252.966c5.55,4.76,8.8,12.35,8.79,20.5c-0.03,12.15-9.6,21.62-21.56,21.32
		c-11.39-0.28-18.89-8.68-18.14-21.47c0.32-5.32,1.7-10.96,4.11-15.68C175.375,246.786,187.365,245.006,196.645,252.966z"/>
	<path d="M194.365,335.626c0.65,0.46,1.31,0.92,1.96,1.37c-4.99,10.94-12.63,20.08-19.69,29.61c-1.06-0.84-2.12-1.69-3.17-2.54
		C180.425,354.586,187.395,345.106,194.365,335.626z"/>
	<path style="fill:#C69C6D;" d="M184.675,164.976c0.14,6.56-6.35,12.02-14.33,12.08c-7.9,0.05-15.02-5.84-15.42-12.76
		c-0.46-7.79,6.63-15.47,14.12-15.3C176.025,149.146,184.535,157.846,184.675,164.976z"/>
	<path d="M177.815,57.056c0.31,11.01-11.5,22.13-22.29,20.99c-8.1-0.85-13.16-6.9-12.56-15.02c0.75-10.04,11.83-20.9,20.99-20.56
		C171.075,42.726,177.605,49.606,177.815,57.056z M167.715,59.366c0.21-5.16-3.05-7.69-7.67-5.36c-4.47,2.27-8.51,5.37-13.28,8.45
		c4.87,8.27,7.79,10.09,12.39,8.72C163.225,69.976,167.525,64.046,167.715,59.366z"/>
	<path style="fill:#8C6239;" d="M160.045,54.006c4.62-2.33,7.88,0.2,7.67,5.36c-0.19,4.68-4.49,10.61-8.56,11.81
		c-4.6,1.37-7.52-0.45-12.39-8.72C151.535,59.376,155.575,56.276,160.045,54.006z"/>
	<path d="M170.215,340.956c-3.62,6.48-7.25,12.95-11.64,20.8C158.605,353.496,161.465,348.056,170.215,340.956z"/>
	<path style="fill:#C69C6D;" d="M156.255,210.806c8.45,19.88-4.99,39.83-29.56,39.26c-12.52-0.55-22.94-4.76-28.3-17.1
		c-4.43-10.21-1.1-22.6,8.5-31.98c4.17-4.09,8.31-8.39,13.13-11.6c3.1-2.06,7.84-3.91,11.1-3.05c10.48,2.76,19.92,7.67,23.58,19.19
		C155.255,207.276,155.545,209.126,156.255,210.806z"/>
	<path d="M154.415,324.176c-5.61,9.79-11.23,19.57-16.84,29.35c-0.75-0.42-1.49-0.84-2.24-1.26c3.43-10.96,11.22-19.54,16.51-29.48
		C152.705,323.256,153.565,323.716,154.415,324.176z"/>
	<path d="M128.035,321.696c-6.12,10.31-12.24,20.62-18.35,30.93C108.875,344.266,114.185,334.886,128.035,321.696z"/>
	<path style="fill:#C69C6D;" d="M112.515,158.506c4.37,0.19,8.25,3.88,7.9,7.5c-0.35,3.64-5.29,7.27-9.8,7.2
		c-4.95-0.07-5.95-3.73-6.15-7.45C104.255,161.776,108.415,158.326,112.515,158.506z"/>
	<path style="fill:#C69C6D;" d="M101.545,267.716c4.55,0.11,8.13,3.54,7.84,7.51c-0.28,3.76-4.46,7.49-8.36,7.47
		c-3.9-0.02-7.86-4-7.78-7.83C93.315,270.936,97.175,267.616,101.545,267.716z"/>
	<path d="M102.555,41.086c2.31,0.55,4.21,2.82,8.44,5.87c-4.56,2.24-7.07,4.54-8.97,4.11c-2.13-0.47-4.88-3.23-5.23-5.35
		C96.235,42.296,99.405,40.336,102.555,41.086z"/>
	<path d="M90.335,65.706c0.22,3.87-3.51,7.6-7.7,7.39c-4.06-0.2-7.77-2.54-7.04-6.42c0.49-2.6,4.26-5.44,7.17-6.52
		C86.535,58.776,90.125,61.996,90.335,65.706z"/>
	<path d="M84.775,401.406c1.4,0.39,2.49,1.92,4.66,3.81c-2.24,1.01-3.73,2.24-4.46,1.89c-1.35-0.65-2.26-2.21-3.35-3.4
		C82.695,402.876,84.005,401.186,84.775,401.406z"/>
	<path d="M89.025,298.116c-2.73,10.32-8.42,18.99-14.77,27.3C76.225,314.666,82.705,306.436,89.025,298.116z"/>
	<path d="M66.685,77.986c4.98,0.38,8.3,4.93,8.12,11.14c-0.21,7.35-5.39,12.35-12.64,12.17c-7-0.17-12.26-4.53-12.18-10.09
		C50.055,85.996,60.755,77.536,66.685,77.986z"/>
	<path d="M73.265,287.136c-4.48,10.1-8.96,20.19-13.45,30.29c-0.89-0.31-1.78-0.63-2.68-0.95c0.55-2,0.79-4.15,1.68-5.97
		c3.99-8.18,8.17-16.26,12.28-24.37C71.815,286.466,72.545,286.806,73.265,287.136z"/>
	<path d="M64.605,263.696c-2.7,13.27-10.58,24.03-16.72,35.64C50.175,285.866,57.645,274.906,64.605,263.696z"/>
	<path d="M57.425,239.386c-4.73,15.37-13.01,26.35-19.5,41.07C37.655,269.836,45.225,254.626,57.425,239.386z"/>
	<path d="M45.535,221.806c-5.82,11.18-11.64,22.36-17.46,33.54c-0.71-0.34-1.41-0.68-2.12-1.02c2.96-12.69,10.94-22.76,17.58-33.54
		C44.195,221.126,44.865,221.466,45.535,221.806z"/>
	<path d="M37.425,346.176c4.49,0.03,8.21,4.12,7.95,8.74c-0.28,5.13-4.28,8.75-12,8.52c-1.7-0.06-4.49-1.97-4.74-6.42
		C28.325,351.636,32.905,346.146,37.425,346.176z"/>
	<path d="M48.875,188.216c-9.17,15.53-18.34,31.06-28.53,48.32C20.535,225.176,30.495,207.896,48.875,188.216z"/>
</g>
<g>
</g>
<g>
</g>
<g>
</g>
<g>
</g>
<g>
</g>
<g>
</g>
<g>
</g>
<g>
</g>
<g>
</g>
<g>
</g>
<g>
</g>
<g>
</g>
<g>
</g>
<g>
</g>
<g>
</g>
</svg>
