<?xml version="1.0" encoding="iso-8859-1"?>
<!-- Generator: Adobe Illustrator 18.0.0, SVG Export Plug-In . SVG Version: 6.00 Build 0)  -->
<!DOCTYPE svg PUBLIC "-//W3C//DTD SVG 1.1//EN" "http://www.w3.org/Graphics/SVG/1.1/DTD/svg11.dtd">
<svg version="1.1" id="Capa_1" xmlns="http://www.w3.org/2000/svg" xmlns:xlink="http://www.w3.org/1999/xlink" x="0px" y="0px"
	 viewBox="0 0 386.48 386.48" style="enable-background:new 0 0 386.48 386.48;" xml:space="preserve">
<g>
	<path d="M375.929,90.987c4.02,20.17,1.7,40.28-0.1,60.45c-1,11.13-1.9,22.34-1.59,33.49c1.01,36.76-2.53,73.18-12.58,108.35
		c-7.61,26.61-18.05,52.56-36.09,74.67c-7.46,9.13-16.47,14.23-27.58,15.23c-36.04,3.25-72.26,5.88-108.06-1.13
		c-21.21-4.15-41.77-11.5-62.82-16.54c-29.79-7.12-55.33-22.66-80.57-38.98c-6.63-4.29-11.63-10.16-13.55-17.73
		c-2.74-10.82-5.35-21.79-6.52-32.85s-0.36-22.32-0.71-33.48c-0.09-2.75-1.31-5.46-1.99-8.2c-1.89-7.65-3.94-15.26-5.62-22.96
		c-1.84-8.42-2.36-17.25-5.17-25.3c-6.2-17.82-5.82-35.5-1.09-53.33c3.91-14.71,11.5-27.08,23.5-36.85
		c24.24-19.74,50.44-35.31,82.29-38.21c8.47-0.77,17.47-0.23,25.7,1.84c14.3,3.6,28.2,8.83,42.24,13.44
		c2.69,0.88,5.3,2.01,8.97,3.42c0.84-3.11,1.43-4.81,1.75-6.57c7.43-40.27,57.68-70.79,93.11-69.72c5.78,0.17,11.66-0.26,17.31,0.68
		c15.85,2.65,28.82,10.08,39.54,22.58C363.189,42.987,370.989,66.257,375.929,90.987z M362.759,159.727
		c2.98-15.87,4.64-32.44,3.6-48.48c-1.01-15.64-5.86-31.09-9.67-46.47c-3.95-15.89-13.56-28.8-24.82-40.09
		c-5.12-5.14-12.27-9.11-19.22-11.4c-16.34-5.38-32.96-3.39-49.02,1.92c-30.49,10.07-51.34,29.96-60.51,61.21
		c-1.06,3.6-1.7,7.31-2.5,10.83c-1.72,0-2.54,0.24-3.11-0.04c-18.61-9.12-38.16-15.58-58.59-18.66c-8.76-1.33-18.1-1.31-26.84,0.14
		c-28.43,4.72-52.02,19.58-72.46,38.97c-17.92,17.01-22.51,39.69-18.32,62.99c2.99,16.62,7.94,32.87,9.52,49.87
		c0.58,6.26,2.71,13.07,9.6,16.08c4.25-11.35,8.17-21.79,12.09-32.22c-0.1,11.81-6.45,21.96-6.93,34.19
		c7.44,0.51,11.57-2.79,14.09-8.44c1.61-3.61,2.75-7.44,4.21-11.13c0.15-0.4,1.01-0.52,2.06-1.01c-0.41,3.34-0.79,6.39-1.08,8.77
		c5.31,1.74,9.96,3.27,15,4.94c0.56-0.89,1.22-2.13,2.07-3.23c0.59-0.77,1.43-1.36,2.16-2.02c-3,9.1-1.88,16.78,3.76,24.6
		c2.99-5.43,5.68-10.31,8.37-15.19c-0.37,6.61-2.4,12.35-4.65,17.99c-2.31,5.76-0.59,9.62,5.15,12.36
		c3.59-8.7,7.03-17.01,10.46-25.33c0.68,0.24,1.35,0.49,2.02,0.73c-2.32,8.02-4.64,16.04-7.09,24.51
		c11.66-1.78,13.96-10.96,17.46-17.05c5.85-0.73,11.1-2.77,15.46-1.56c5.17,1.44,9.57,5.66,12.86,7.76
		c2.57,12.22,1.39,23.34,6.01,34.61c5.8-8.65,7.36-18.35,16.28-23.73c-4.42,10.04-8.85,20.09-13.42,30.48
		c1.68,1.77,3.33,3.52,5.41,5.72c4.25-9.52,8.2-18.37,12.14-27.21c0.77,0.31,1.54,0.61,2.3,0.92c-3.2,8.94-6.41,17.88-10.07,28.08
		c8.56-0.98,12.51-5.07,15.4-10.7c3.79-7.38,7.61-14.75,11.48-22.09c0.19-0.36,1.01-0.39,2.15-0.79c-0.46,2.66-0.85,4.92-1.13,6.57
		c4.85,1.35,9.23,2.57,14.12,3.93c1.45-1.69,3.3-3.85,5.86-6.83c-1.17,6.23-3.03,11.09-2.76,15.83c0.49,8.6,2,17.18,3.54,25.68
		c0.96,5.29,2.16,10.69,4.31,15.57c4.03,9.16,16.08,16.72,24.36,15.14c10.25-1.94,12.84-10.69,15.02-19.22
		c1.79-7,2.65-14.25,4.75-21.14c1.95-6.39,3.23-14.06,11.54-15.62c7.73-1.44,11.75,4.38,15.66,9.61c3.15,4.21,6.74,6.12,12.13,4.65
		c5.1-1.39,8.67-4.2,8.97-9.49c0.68-11.89,7.34-20.98,13.63-30.2c8.6-12.61,16.83-25.52,20.98-40.24
		C352.619,203.287,358.639,181.667,362.759,159.727z M335.279,302.397c14.62-30.58,30.36-60.88,28.79-95.77
		c-5.1,12.65-9.35,26.2-15.89,38.53c-6.73,12.67-15.95,24-23.54,36.24c-2.15,3.45-3.36,8.07-3.34,12.14
		c0.03,6.9-0.84,12.77-6.78,17.29c-1.62,1.23-2.68,4.16-2.72,6.33c-0.07,4.25,0.75,8.52,1.32,13.75
		C323.249,322.717,330.149,313.137,335.279,302.397z M355.109,270.157c-0.66,0.84-1.6,1.58-1.93,2.54
		c-7.97,22.79-19.51,43.41-36.43,60.87c-1.89,1.96-3.69,4.98-3.74,7.54c-0.16,8.1,0.52,16.21,0.88,24.32
		c0.76,0.16,1.52,0.32,2.28,0.48C335.679,336.877,349.859,305.537,355.109,270.157z M305.939,337.397c2.66-8.2,3.51-15.09,0.8-21.4
		c-5.99-1.04-11.75-0.87-16.28-3.15c-4.75-2.39-8.33-7.12-14.02-12.28c-2.17,12.31-4.05,22.97-6.2,35.2
		C282.669,336.337,293.959,336.857,305.939,337.397z M305.249,374.897c3.1-10.99,1.33-22.28,1.53-33.33c-13.6,0-25.82,0-38.71,0
		c-1.09,1.49-2.48,3.58-4.04,5.53c-8.24,10.35-17.45,13.68-29.65,8.86c-6.86-2.7-13.23-7.24-18.94-12.01
		c-3.65-3.05-6.47-5.6-11.69-6.29c-14.99-1.95-30-4.13-43.47-12.16c-4.15-2.48-9.51-3.6-14.43-4.03
		c-15.12-1.32-28.96-5.78-41.52-14.38c-2.96-2.02-6.24-3.88-9.65-4.84c-11.94-3.35-24.01-6.28-37.04-9.63
		c-1.61,8.17-3.32,16.82-5.08,25.71c3.72,2.17,6.71,3.92,10.26,5.98c2.37-7.61,4.5-14.47,7.16-23c0.91,2.46,1.18,2.82,1.12,3.11
		c-0.79,4.26-1.65,8.5-2.45,12.76c-1.98,10.52-1.82,10.86,7.91,15.89c0.93,0.48,2.02,0.64,3.68,1.15c1.04-4.34,1.86-8.56,3.08-12.66
		c1.14-3.78,2.71-7.43,4.09-11.13c0.5,0.16,1,0.33,1.5,0.49c-1.71,8.69-3.43,17.38-5.16,26.15c5.72,3.05,10.38,5.53,15.33,8.17
		c1.2-5.32,2.01-9.58,3.15-13.74c1.08-3.98,2.51-7.87,3.78-11.79c0.69,0.21,1.39,0.42,2.08,0.64c-1.21,6.99-2.59,13.96-3.59,20.99
		c-0.92,6.44-0.74,6.46,7.67,7.42c4.03-7.55,4.84-16.74,12.4-22.77c-2.49,8.42-4.99,16.84-7.63,25.76
		c5.24,1.57,9.28,2.79,13.87,4.17c2.48-7.44,4.73-14.21,6.98-20.98c0.56,0.16,1.13,0.33,1.69,0.49c-1.13,7.32-2.25,14.63-3.47,22.52
		c4.21,0.42,7.27,0.72,10.3,1.02c2.61-7.36,4.95-13.96,7.29-20.56c0.73,0.23,1.46,0.47,2.19,0.7c-1.58,7.1-3.16,14.19-4.84,21.72
		c3,0.64,4.71,1.01,6.81,1.46c1.23-3.62,2.24-7.04,3.58-10.33c1.3-3.22,2.93-6.3,4.42-9.44c0.53,0.26,1.07,0.52,1.61,0.77
		c-1.56,6.56-3.11,13.11-4.81,20.29c3.64,1.04,6.52,1.86,9.65,2.75c2.39-8,4.53-15.15,6.67-22.3c0.18,6.25-1.35,12.08-2.59,17.96
		c-1.03,4.87,0.39,7.81,5.87,6.78c1.84-4.7,3.54-9.03,5.24-13.35c0.54,0.21,1.08,0.42,1.62,0.63c-0.88,4.44-1.76,8.89-2.6,13.13
		C200.279,375.817,286.989,376.967,305.249,374.897z M208.099,331.357c-5.43-11.31,0.04-23.21-8.59-32.38
		c0.67-3.8,5.33-8.16-1.44-12.58c-1.67,2.33-3.41,4.48-4.82,6.83c-1.66,2.78-2.81,5.89-4.57,8.61
		c-10.34,15.98-29.32,16.32-40.33,0.74c-4.48-6.34-6.81-13.41-7.26-21.23c-0.38-6.84-0.81-13.77-2.27-20.43
		c-0.57-2.6-3.68-5.36-6.3-6.47c-1.16-0.48-4.66,2.57-5.92,4.71c-3.76,6.4-8.28,11.8-15.13,15c-12.88,6.01-23.72,2.67-29.94-9.94
		c-2.85-5.78-4.44-12.18-6.74-18.25c-1.47-3.89-3.19-7.67-5.59-13.38c-9.66,13.08-20.06,20.49-35.79,13.1
		c0.69,8.64,0.97,16.19,2.06,23.62c0.36,2.46,2.25,5.52,4.36,6.77c13.95,8.33,28.04,16.76,44.45,19.16
		c8.79,1.29,16.73,3.96,24.22,8.67c10.18,6.4,20.97,11.44,33.27,12c9.95,0.45,19.23,3.34,27.99,7.79
		C181.289,329.557,193.869,328.677,208.099,331.357z M49.109,315.237c2.65-9.93,4.73-17.75,6.85-25.67
		c-6.33-3.56-12.09-6.79-19.47-10.94C38.369,292.437,41.399,303.697,49.109,315.237z"/>
	<path style="fill:#603813;" d="M366.359,111.247c1.04,16.04-0.62,32.61-3.6,48.48c-4.12,21.94-10.14,43.56-16.21,65.07
		c-4.15,14.72-12.38,27.63-20.98,40.24c-6.29,9.22-12.95,18.31-13.63,30.2c-0.3,5.29-3.87,8.1-8.97,9.49
		c-5.39,1.47-8.98-0.44-12.13-4.65c-3.91-5.23-7.93-11.05-15.66-9.61c-8.31,1.56-9.59,9.23-11.54,15.62
		c-2.1,6.89-2.96,14.14-4.75,21.14c-2.18,8.53-4.77,17.28-15.02,19.22c-8.28,1.58-20.33-5.98-24.36-15.14
		c-2.15-4.88-3.35-10.28-4.31-15.57c-1.54-8.5-3.05-17.08-3.54-25.68c-0.27-4.74,1.59-9.6,2.76-15.83
		c-2.56,2.98-4.41,5.14-5.86,6.83c-4.89-1.36-9.27-2.58-14.12-3.93c0.28-1.65,0.67-3.91,1.13-6.57c-1.14,0.4-1.96,0.43-2.15,0.79
		c-3.87,7.34-7.69,14.71-11.48,22.09c-2.89,5.63-6.84,9.72-15.4,10.7c3.66-10.2,6.87-19.14,10.07-28.08
		c-0.76-0.31-1.53-0.61-2.3-0.92c-3.94,8.84-7.89,17.69-12.14,27.21c-2.08-2.2-3.73-3.95-5.41-5.72c4.57-10.39,9-20.44,13.42-30.48
		c-8.92,5.38-10.48,15.08-16.28,23.73c-4.62-11.27-3.44-22.39-6.01-34.61c-3.29-2.1-7.69-6.32-12.86-7.76
		c-4.36-1.21-9.61,0.83-15.46,1.56c-3.5,6.09-5.8,15.27-17.46,17.05c2.45-8.47,4.77-16.49,7.09-24.51
		c-0.67-0.24-1.34-0.49-2.02-0.73c-3.43,8.32-6.87,16.63-10.46,25.33c-5.74-2.74-7.46-6.6-5.15-12.36
		c2.25-5.64,4.28-11.38,4.65-17.99c-2.69,4.88-5.38,9.76-8.37,15.19c-5.64-7.82-6.76-15.5-3.76-24.6c-0.73,0.66-1.57,1.25-2.16,2.02
		c-0.85,1.1-1.51,2.34-2.07,3.23c-5.04-1.67-9.69-3.2-15-4.94c0.29-2.38,0.67-5.43,1.08-8.77c-1.05,0.49-1.91,0.61-2.06,1.01
		c-1.46,3.69-2.6,7.52-4.21,11.13c-2.52,5.65-6.65,8.95-14.09,8.44c0.48-12.23,6.83-22.38,6.93-34.19
		c-3.92,10.43-7.84,20.87-12.09,32.22c-6.89-3.01-9.02-9.82-9.6-16.08c-1.58-17-6.53-33.25-9.52-49.87
		c-4.19-23.3,0.4-45.98,18.32-62.99c20.44-19.39,44.03-34.25,72.46-38.97c8.74-1.45,18.08-1.47,26.84-0.14
		c20.43,3.08,39.98,9.54,58.59,18.66c0.57,0.28,1.39,0.04,3.11,0.04c0.8-3.52,1.44-7.23,2.5-10.83
		c9.17-31.25,30.02-51.14,60.51-61.21c16.06-5.31,32.68-7.3,49.02-1.92c6.95,2.29,14.1,6.26,19.22,11.4
		c11.26,11.29,20.87,24.2,24.82,40.09C360.499,80.157,365.349,95.607,366.359,111.247z M348.459,183.697
		c12.03-28.93,15.05-59.26,9.86-90.24c-0.85-5.1-2.65-10.04-4.01-15.05c-1.11,4.44-0.22,8.3,0.01,12.2
		c1.87,32.49-1.66,64.35-15.14,94.15c-12.01,26.58-21.16,54.51-36.68,79.48c-0.7,1.11-0.78,2.6-1.81,6.33
		c9-4.44,12.77-10.62,15.79-17.03C327.379,230.367,338.629,207.327,348.459,183.697z M339.299,77.207c0.25-2.85,0.27-5.77,0.01-8.62
		c-1.51-16.62-12.72-26.82-28.78-26.59c-2.81,7.73-5.41,14.35-7.6,21.11c-1.31,4.04-2.73,8.29-2.78,12.46
		c-0.13,11.21,9.71,21.86,19.61,22.03C330.249,97.767,338.269,89.477,339.299,77.207z M336.719,149.837
		c1.18-10.59-1.78-19.2-11.57-24.68c-2.17-1.21-4.16-2.74-6.85-4.53c-6.35,7.21-12.12,13.55-17.61,20.12
		c-1.8,2.16-3.35,4.78-4.2,7.46c-2.98,9.3,2.25,15.89,8.07,22.05c4.25,4.49,9.76,4.92,14.97,2.64
		C329.469,168.557,335.489,160.887,336.719,149.837z M286.939,225.497c1.08-13.19-3.46-21.18-15.43-26.99
		c-3.25-1.57-6.59-2.96-9.92-4.35c-4.33-1.81-7.54-0.96-9.77,3.59c-3.97,8.1-8.48,15.94-12.35,24.09
		c-3.77,7.93-2.06,14.33,4.21,20.65c5.5,5.55,12.29,5.37,17.64,5.14C279.029,247.657,285.639,241.577,286.939,225.497z
		 M278.559,56.007c0.12-11.85-8.72-23.72-19.02-25.86c-2.1-0.44-5.46,0.17-6.7,1.61c-4.21,4.91-8.33,10.09-11.39,15.76
		c-4.35,8.07-3.09,16.36,2.63,23.34c4.95,6.05,11.15,10.42,19.8,8.31c9.27-2.25,11.84-9.8,13.92-17.67
		C278.349,59.417,278.409,57.207,278.559,56.007z M232.029,123.877c7.05-13.99,3.55-29.81-8.86-39.52c-2.52-1.98-4.9-4.13-7.31-6.18
		c-5.87,8.82-10.81,17.48-16.99,25.14c-5.62,6.97-5.64,13.58-2.16,21.08c3.73,8.04,11.42,8.42,18.45,8.91
		C222.359,133.817,228.479,130.907,232.029,123.877z M192.859,227.407c0.74-2.75,0.92-5.66,1.08-6.71
		c-0.14-9.26-1.87-14.27-7.52-19.1c-3.76-3.21-8.27-5.69-12.73-7.93c-7.25-3.65-7.99-3.37-12.36,2.92
		c-3.08,4.44-6.1,8.93-8.86,13.57c-4.31,7.27-3.21,14.43,0.84,21.5c3.24,5.65,9.11,6.45,14.48,8.43
		C183.219,245.777,188.609,243.167,192.859,227.407z M163.469,101.187c0.43-11.67-7.92-16.91-14.81-21.97
		c-5.99-4.4-8.65,4.19-12.92,6.68c-2.69,1.57-5.38,4.06-6.72,6.8c-1.63,3.33-2.96,7.51-2.44,11.03c1.24,8.34,11.8,15.93,19.71,15.15
		C156.529,117.877,163.319,110.517,163.469,101.187z M117.849,197.127c5.32-16.48-2-31.79-20.82-41.14c-2.77,5-4.84,9.95-7.99,14.07
		c-3.25,4.26-7.56,7.7-11.38,11.53c-0.51,0.5-1.17,1.12-1.23,1.74c-0.33,3.37-1.94,7.72-0.45,9.97c4.14,6.22,9.31,11.85,14.68,17.08
		c1.72,1.67,5.44,2.13,8.1,1.84C108.109,211.197,114.809,206.527,117.849,197.127z M100.359,137.447c3.42-3.72,4.93-9.2,6.99-13.34
		c-3.14-13.44-7.53-24.61-17.45-32.89c-0.82-0.69-1.87-1.78-2.69-1.67c-2.59,0.33-6.32,0.29-7.46,1.9
		c-6.64,9.41-13.04,19.03-18.75,29.01c-3.97,6.94-1.62,16.81,4.18,22.88c7.21,7.53,10.87,8.49,21.1,3.71
		C91.389,144.657,96.609,141.537,100.359,137.447z M36.879,225.537c1.61-6.68,3.23-13.36,4.84-20.04
		C37.839,211.637,34.209,217.827,36.879,225.537z"/>
	<path style="fill:#A67C52;" d="M364.069,206.627c1.57,34.89-14.17,65.19-28.79,95.77c-5.13,10.74-12.03,20.32-22.16,28.51
		c-0.57-5.23-1.39-9.5-1.32-13.75c0.04-2.17,1.1-5.1,2.72-6.33c5.94-4.52,6.81-10.39,6.78-17.29c-0.02-4.07,1.19-8.69,3.34-12.14
		c7.59-12.24,16.81-23.57,23.54-36.24C354.719,232.827,358.969,219.277,364.069,206.627z"/>
	<path d="M358.319,93.457c5.19,30.98,2.17,61.31-9.86,90.24c-9.83,23.63-21.08,46.67-31.98,69.84c-3.02,6.41-6.79,12.59-15.79,17.03
		c1.03-3.73,1.11-5.22,1.81-6.33c15.52-24.97,24.67-52.9,36.68-79.48c13.48-29.8,17.01-61.66,15.14-94.15
		c-0.23-3.9-1.12-7.76-0.01-12.2C355.669,83.417,357.469,88.357,358.319,93.457z"/>
	<path style="fill:#8C6239;" d="M353.179,272.697c0.33-0.96,1.27-1.7,1.93-2.54c-5.25,35.38-19.43,66.72-38.94,95.75
		c-0.76-0.16-1.52-0.32-2.28-0.48c-0.36-8.11-1.04-16.22-0.88-24.32c0.05-2.56,1.85-5.58,3.74-7.54
		C333.669,316.107,345.209,295.487,353.179,272.697z"/>
	<path d="M339.309,68.587c0.26,2.85,0.24,5.77-0.01,8.62c-1.03,12.27-9.05,20.56-19.54,20.39c-9.9-0.17-19.74-10.82-19.61-22.03
		c0.05-4.17,1.47-8.42,2.78-12.46c2.19-6.76,4.79-13.38,7.6-21.11C326.589,41.767,337.799,51.967,339.309,68.587z M327.499,87.707
		c6.2-6.71,6.7-15.17,4.45-23.42c-2.21-8.1-6.24-15.28-16.39-16.67c-0.92,3.46-1.51,6.59-2.61,9.54c-1.26,3.37-2.99,6.56-4.5,9.83
		c-2.96,6.41-2.64,12.67,1.37,18.49C314.309,91.977,322.469,93.167,327.499,87.707z"/>
	<path d="M325.149,125.157c9.79,5.48,12.75,14.09,11.57,24.68c-1.23,11.05-7.25,18.72-17.19,23.06c-5.21,2.28-10.72,1.85-14.97-2.64
		c-5.82-6.16-11.05-12.75-8.07-22.05c0.85-2.68,2.4-5.3,4.2-7.46c5.49-6.57,11.26-12.91,17.61-20.12
		C320.989,122.417,322.979,123.947,325.149,125.157z M318.319,166.987c14.86-7.65,16.06-28.41,2.03-38.42
		c-5.43,6.18-11.17,12.15-16.24,18.65c-4.09,5.27-2.64,11.7,2.59,17.55C310.149,168.617,313.949,169.237,318.319,166.987z"/>
	<path style="fill:#C7B299;" d="M331.949,64.287c2.25,8.25,1.75,16.71-4.45,23.42c-5.03,5.46-13.19,4.27-17.68-2.23
		c-4.01-5.82-4.33-12.08-1.37-18.49c1.51-3.27,3.24-6.46,4.5-9.83c1.1-2.95,1.69-6.08,2.61-9.54
		C325.709,49.007,329.739,56.187,331.949,64.287z"/>
	<path style="fill:#C7B299;" d="M320.349,128.567c14.03,10.01,12.83,30.77-2.03,38.42c-4.37,2.25-8.17,1.63-11.62-2.22
		c-5.23-5.85-6.68-12.28-2.59-17.55C309.179,140.717,314.919,134.747,320.349,128.567z"/>
	<path style="fill:#A67C52;" d="M306.739,315.997c2.71,6.31,1.86,13.2-0.8,21.4c-11.98-0.54-23.27-1.06-35.7-1.63
		c2.15-12.23,4.03-22.89,6.2-35.2c5.69,5.16,9.27,9.89,14.02,12.28C294.989,315.127,300.749,314.957,306.739,315.997z"/>
	<path style="fill:#8C6239;" d="M306.779,341.567c-0.2,11.05,1.57,22.34-1.53,33.33c-18.26,2.07-104.97,0.92-118.83-5.72
		c0.84-4.24,1.72-8.69,2.6-13.13c-0.54-0.21-1.08-0.42-1.62-0.63c-1.7,4.32-3.4,8.65-5.24,13.35c-5.48,1.03-6.9-1.91-5.87-6.78
		c1.24-5.88,2.77-11.71,2.59-17.96c-2.14,7.15-4.28,14.3-6.67,22.3c-3.13-0.89-6.01-1.71-9.65-2.75c1.7-7.18,3.25-13.73,4.81-20.29
		c-0.54-0.25-1.08-0.51-1.61-0.77c-1.49,3.14-3.12,6.22-4.42,9.44c-1.34,3.29-2.35,6.71-3.58,10.33c-2.1-0.45-3.81-0.82-6.81-1.46
		c1.68-7.53,3.26-14.62,4.84-21.72c-0.73-0.23-1.46-0.47-2.19-0.7c-2.34,6.6-4.68,13.2-7.29,20.56c-3.03-0.3-6.09-0.6-10.3-1.02
		c1.22-7.89,2.34-15.2,3.47-22.52c-0.56-0.16-1.13-0.33-1.69-0.49c-2.25,6.77-4.5,13.54-6.98,20.98c-4.59-1.38-8.63-2.6-13.87-4.17
		c2.64-8.92,5.14-17.34,7.63-25.76c-7.56,6.03-8.37,15.22-12.4,22.77c-8.41-0.96-8.59-0.98-7.67-7.42c1-7.03,2.38-14,3.59-20.99
		c-0.69-0.22-1.39-0.43-2.08-0.64c-1.27,3.92-2.7,7.81-3.78,11.79c-1.14,4.16-1.95,8.42-3.15,13.74c-4.95-2.64-9.61-5.12-15.33-8.17
		c1.73-8.77,3.45-17.46,5.16-26.15c-0.5-0.16-1-0.33-1.5-0.49c-1.38,3.7-2.95,7.35-4.09,11.13c-1.22,4.1-2.04,8.32-3.08,12.66
		c-1.66-0.51-2.75-0.67-3.68-1.15c-9.73-5.03-9.89-5.37-7.91-15.89c0.8-4.26,1.66-8.5,2.45-12.76c0.06-0.29-0.21-0.65-1.12-3.11
		c-2.66,8.53-4.79,15.39-7.16,23c-3.55-2.06-6.54-3.81-10.26-5.98c1.76-8.89,3.47-17.54,5.08-25.71c13.03,3.35,25.1,6.28,37.04,9.63
		c3.41,0.96,6.69,2.82,9.65,4.84c12.56,8.6,26.4,13.06,41.52,14.38c4.92,0.43,10.28,1.55,14.43,4.03
		c13.47,8.03,28.48,10.21,43.47,12.16c5.22,0.69,8.04,3.24,11.69,6.29c5.71,4.77,12.08,9.31,18.94,12.01
		c12.2,4.82,21.41,1.49,29.65-8.86c1.56-1.95,2.95-4.04,4.04-5.53C280.959,341.567,293.179,341.567,306.779,341.567z"/>
	<path d="M271.509,198.507c11.97,5.81,16.51,13.8,15.43,26.99c-1.3,16.08-7.91,22.16-25.62,22.13c-5.35,0.23-12.14,0.41-17.64-5.14
		c-6.27-6.32-7.98-12.72-4.21-20.65c3.87-8.15,8.38-15.99,12.35-24.09c2.23-4.55,5.44-5.4,9.77-3.59
		C264.919,195.547,268.259,196.937,271.509,198.507z M273.739,239.227c9.29-7.5,8.35-26.34-1.74-33.19
		c-3.73-2.54-8.04-4.21-11.91-6.19c-4.79,8.65-9.36,16.29-13.33,24.25c-4.43,8.9,1.48,17.57,11.39,17.28
		c3.23-0.1,6.48,0.04,9.67-0.31C269.859,240.847,272.229,240.447,273.739,239.227z"/>
	<path d="M259.539,30.147c10.3,2.14,19.14,14.01,19.02,25.86c-0.15,1.2-0.21,3.41-0.76,5.49c-2.08,7.87-4.65,15.42-13.92,17.67
		c-8.65,2.11-14.85-2.26-19.8-8.31c-5.72-6.98-6.98-15.27-2.63-23.34c3.06-5.67,7.18-10.85,11.39-15.76
		C254.079,30.317,257.439,29.707,259.539,30.147z M267.329,69.137c8.86-11.37,5.2-25.44-9.09-32.4c-3.05,3.45-5.7,6.38-8.29,9.38
		c-5.74,6.66-5.3,13.92-1.63,21.22C251.909,74.497,262.449,75.377,267.329,69.137z"/>
	<path style="fill:#C7B299;" d="M271.999,206.037c10.09,6.85,11.03,25.69,1.74,33.19c-1.51,1.22-3.88,1.62-5.92,1.84
		c-3.19,0.35-6.44,0.21-9.67,0.31c-9.91,0.29-15.82-8.38-11.39-17.28c3.97-7.96,8.54-15.6,13.33-24.25
		C263.959,201.827,268.269,203.497,271.999,206.037z"/>
	<path style="fill:#C7B299;" d="M258.239,36.737c14.29,6.96,17.95,21.03,9.09,32.4c-4.88,6.24-15.42,5.36-19.01-1.8
		c-3.67-7.3-4.11-14.56,1.63-21.22C252.539,43.117,255.189,40.187,258.239,36.737z"/>
	<path d="M223.169,84.357c12.41,9.71,15.91,25.53,8.86,39.52c-3.55,7.03-9.67,9.94-16.87,9.43c-7.03-0.49-14.72-0.87-18.45-8.91
		c-3.48-7.5-3.46-14.11,2.16-21.08c6.18-7.66,11.12-16.32,16.99-25.14C218.269,80.227,220.649,82.377,223.169,84.357z
		 M224.459,121.727c7.45-11.27,4.21-26.71-6.69-34.13c-4.88,7.11-9.44,13.4-13.61,19.94c-1.83,2.88-4.29,6.4-3.99,9.38
		c0.48,4.93,4.42,8.39,9.6,8.84C214.999,126.197,220.629,127.537,224.459,121.727z"/>
	<path style="fill:#C7B299;" d="M217.769,87.597c10.9,7.42,14.14,22.86,6.69,34.13c-3.83,5.81-9.46,4.47-14.69,4.03
		c-5.18-0.45-9.12-3.91-9.6-8.84c-0.3-2.98,2.16-6.5,3.99-9.38C208.329,100.997,212.889,94.707,217.769,87.597z"/>
	<path style="fill:#A67C52;" d="M199.509,298.977c8.63,9.17,3.16,21.07,8.59,32.38c-14.23-2.68-26.81-1.8-38.34-7.66
		c-8.76-4.45-18.04-7.34-27.99-7.79c-12.3-0.56-23.09-5.6-33.27-12c-7.49-4.71-15.43-7.38-24.22-8.67
		c-16.41-2.4-30.5-10.83-44.45-19.16c-2.11-1.25-4-4.31-4.36-6.77c-1.09-7.43-1.37-14.98-2.06-23.62
		c15.73,7.39,26.13-0.02,35.79-13.1c2.4,5.71,4.12,9.49,5.59,13.38c2.3,6.07,3.89,12.47,6.74,18.25
		c6.22,12.61,17.06,15.95,29.94,9.94c6.85-3.2,11.37-8.6,15.13-15c1.26-2.14,4.76-5.19,5.92-4.71c2.62,1.11,5.73,3.87,6.3,6.47
		c1.46,6.66,1.89,13.59,2.27,20.43c0.45,7.82,2.78,14.89,7.26,21.23c11.01,15.58,29.99,15.24,40.33-0.74
		c1.76-2.72,2.91-5.83,4.57-8.61c1.41-2.35,3.15-4.5,4.82-6.83C204.839,290.817,200.179,295.177,199.509,298.977z"/>
	<path d="M193.939,220.697c-0.16,1.05-0.34,3.96-1.08,6.71c-4.25,15.76-9.64,18.37-25.07,12.68c-5.37-1.98-11.24-2.78-14.48-8.43
		c-4.05-7.07-5.15-14.23-0.84-21.5c2.76-4.64,5.78-9.13,8.86-13.57c4.37-6.29,5.11-6.57,12.36-2.92c4.46,2.24,8.97,4.72,12.73,7.93
		C192.069,206.427,193.799,211.437,193.939,220.697z M180.109,236.417c12.07-20.06,9.68-29.34-10.13-38.41
		c-2.94,4.11-5.43,7.6-7.94,11.08c-10.58,14.65-5.96,25.15,12.07,27.29C176.179,236.627,178.309,236.417,180.109,236.417z"/>
	<path style="fill:#C7B299;" d="M169.979,198.007c19.81,9.07,22.2,18.35,10.13,38.41c-1.8,0-3.93,0.21-6-0.04
		c-18.03-2.14-22.65-12.64-12.07-27.29C164.549,205.607,167.039,202.117,169.979,198.007z"/>
	<path d="M148.659,79.217c6.89,5.06,15.24,10.3,14.81,21.97c-0.15,9.33-6.94,16.69-17.18,17.69c-7.91,0.78-18.47-6.81-19.71-15.15
		c-0.52-3.52,0.81-7.7,2.44-11.03c1.34-2.74,4.03-5.23,6.72-6.8C140.009,83.407,142.669,74.817,148.659,79.217z M154.279,107.567
		c3.68-3.77,4.08-9.24,1.01-13.97c-2.1-3.25-4.94-6.02-7.66-9.27c-4.71,4.42-8.71,7.56-11.86,11.39c-1.58,1.92-3.03,6.06-2.05,7.54
		c2.44,3.69,5.88,8,9.74,9.03C146.509,113.107,151.629,110.287,154.279,107.567z"/>
	<path style="fill:#C7B299;" d="M155.289,93.597c3.07,4.73,2.67,10.2-1.01,13.97c-2.65,2.72-7.77,5.54-10.82,4.72
		c-3.86-1.03-7.3-5.34-9.74-9.03c-0.98-1.48,0.47-5.62,2.05-7.54c3.15-3.83,7.15-6.97,11.86-11.39
		C150.349,87.577,153.189,90.347,155.289,93.597z"/>
	<path d="M97.029,155.987c18.82,9.35,26.14,24.66,20.82,41.14c-3.04,9.4-9.74,14.07-19.09,15.09c-2.66,0.29-6.38-0.17-8.1-1.84
		c-5.37-5.23-10.54-10.86-14.68-17.08c-1.49-2.25,0.12-6.6,0.45-9.97c0.06-0.62,0.72-1.24,1.23-1.74
		c3.82-3.83,8.13-7.27,11.38-11.53C92.189,165.937,94.259,160.987,97.029,155.987z M108.439,199.897
		c5.76-11.56,2.87-24.48-7.49-33.64c-4.15,4.4-8.04,9.07-12.49,13.11c-10.43,9.48-10.52,12.58,0.25,21.96
		c1.08,0.95,2.29,1.75,3.45,2.61C99.209,209.177,104.459,207.867,108.439,199.897z"/>
	<path style="fill:#C7B299;" d="M100.949,166.257c10.36,9.16,13.25,22.08,7.49,33.64c-3.98,7.97-9.23,9.28-16.28,4.04
		c-1.16-0.86-2.37-1.66-3.45-2.61c-10.77-9.38-10.68-12.48-0.25-21.96C92.909,175.327,96.799,170.657,100.949,166.257z"/>
	<path d="M107.349,124.107c-2.06,4.14-3.57,9.62-6.99,13.34c-3.75,4.09-8.97,7.21-14.08,9.6c-10.23,4.78-13.89,3.82-21.1-3.71
		c-5.8-6.07-8.15-15.94-4.18-22.88c5.71-9.98,12.11-19.6,18.75-29.01c1.14-1.61,4.87-1.57,7.46-1.9c0.82-0.11,1.87,0.98,2.69,1.67
		C99.819,99.497,104.209,110.667,107.349,124.107z M98.349,128.537c3.01-9.51-2.12-23.25-12.24-31.73
		c-5.24,8.11-10.6,16.18-15.69,24.42c-1.66,2.69-3.25,5.74-3.72,8.8c-1.12,7.37,6.08,15.49,12.54,13.97
		C87.889,141.977,95.339,138.057,98.349,128.537z"/>
	<path style="fill:#C7B299;" d="M86.109,96.807c10.12,8.48,15.25,22.22,12.24,31.73c-3.01,9.52-10.46,13.44-19.11,15.46
		c-6.46,1.52-13.66-6.6-12.54-13.97c0.47-3.06,2.06-6.11,3.72-8.8C75.509,112.987,80.869,104.917,86.109,96.807z"/>
	<path style="fill:#8C6239;" d="M55.959,289.567c-2.12,7.92-4.2,15.74-6.85,25.67c-7.71-11.54-10.74-22.8-12.62-36.61
		C43.869,282.777,49.629,286.007,55.959,289.567z"/>
	<path d="M41.719,205.497c-1.61,6.68-3.23,13.36-4.84,20.04C34.209,217.827,37.839,211.637,41.719,205.497z"/>
</g>
<g>
</g>
<g>
</g>
<g>
</g>
<g>
</g>
<g>
</g>
<g>
</g>
<g>
</g>
<g>
</g>
<g>
</g>
<g>
</g>
<g>
</g>
<g>
</g>
<g>
</g>
<g>
</g>
<g>
</g>
</svg>
