<?xml version="1.0" encoding="iso-8859-1"?>
<!-- Generator: Adobe Illustrator 19.0.0, SVG Export Plug-In . SVG Version: 6.00 Build 0)  -->
<svg version="1.1" id="Layer_1" xmlns="http://www.w3.org/2000/svg" xmlns:xlink="http://www.w3.org/1999/xlink" x="0px" y="0px"
	 viewBox="0 0 354.088 354.088" style="enable-background:new 0 0 354.088 354.088;" xml:space="preserve">
<g id="XMLID_1133_">
	<circle id="XMLID_1134_" style="fill:#FFFEB9;" cx="177.044" cy="177.045" r="162.487"/>
	<path id="XMLID_1135_" style="fill:#FF5959;" d="M177.044,354.088C79.421,354.088,0,274.667,0,177.045S79.421,0.001,177.044,0.001
		s177.044,79.421,177.044,177.044S274.666,354.088,177.044,354.088z M177.044,29.114c-81.569,0-147.931,66.361-147.931,147.931
		s66.362,147.931,147.931,147.931s147.931-66.361,147.931-147.931S258.613,29.114,177.044,29.114z"/>
	<g id="XMLID_1138_">
		<g id="XMLID_1139_">
			<path id="XMLID_1140_" style="fill:#FFE165;" d="M204.11,42.471c0,22.479-27.067,40.702-27.067,40.702
				s-27.066-18.222-27.066-40.702s27.067-40.702,27.067-40.702S204.11,19.992,204.11,42.471z"/>
			<path id="XMLID_1141_" style="fill:#FFE165;" d="M204.11,311.617c0,22.479-27.067,40.702-27.067,40.702
				s-27.067-18.223-27.067-40.702s27.067-40.702,27.067-40.702S204.11,289.138,204.11,311.617z"/>
		</g>
		<g id="XMLID_1142_">
			<path id="XMLID_589_" style="fill:#FFE165;" d="M311.617,204.111c-22.479,0-40.702-27.067-40.702-27.067
				s18.223-27.067,40.702-27.067s40.702,27.067,40.702,27.067S334.096,204.111,311.617,204.111z"/>
			<path id="XMLID_588_" style="fill:#FFE165;" d="M42.47,204.111c-22.479,0-40.702-27.067-40.702-27.067
				s18.223-27.067,40.702-27.067s40.702,27.067,40.702,27.067S64.95,204.111,42.47,204.111z"/>
		</g>
		<g id="XMLID_1143_">
			<path id="XMLID_586_" style="fill:#FFE165;" d="M291.34,101.026c-15.895,15.895-47.92,9.642-47.92,9.642
				s-6.253-32.025,9.642-47.92s47.92-9.642,47.92-9.642S307.236,85.13,291.34,101.026z"/>
			<path id="XMLID_585_" style="fill:#FFE165;" d="M101.025,291.341c-15.895,15.895-47.92,9.642-47.92,9.642
				s-6.253-32.025,9.642-47.92s47.92-9.642,47.92-9.642S116.92,275.445,101.025,291.341z"/>
		</g>
		<g id="XMLID_1144_">
			<path id="XMLID_583_" style="fill:#FFE165;" d="M253.062,291.341c-15.895-15.895-9.642-47.92-9.642-47.92
				s32.025-6.253,47.92,9.642s9.642,47.92,9.642,47.92S268.958,307.237,253.062,291.341z"/>
			<path id="XMLID_582_" style="fill:#FFE165;" d="M62.747,101.026c-15.895-15.895-9.642-47.92-9.642-47.92
				s32.025-6.253,47.92,9.642s9.642,47.92,9.642,47.92S78.642,116.921,62.747,101.026z"/>
		</g>
	</g>
	<path id="XMLID_1145_" style="fill:#FF5959;" d="M209.867,122.342c-18.393,0-30.061,20.504-32.823,20.504
		c-2.415,0-13.606-20.504-32.824-20.504c-18.693,0-33.956,15.416-34.955,34.084c-0.563,10.545,2.836,18.569,7.627,25.839
		c9.57,14.522,51.415,49.483,60.214,49.483c8.989,0,50.457-34.834,60.09-49.483c4.802-7.302,8.191-15.294,7.627-25.839
		C243.823,137.758,228.561,122.342,209.867,122.342"/>
</g>
<g>
</g>
<g>
</g>
<g>
</g>
<g>
</g>
<g>
</g>
<g>
</g>
<g>
</g>
<g>
</g>
<g>
</g>
<g>
</g>
<g>
</g>
<g>
</g>
<g>
</g>
<g>
</g>
<g>
</g>
</svg>
