<?xml version="1.0" encoding="iso-8859-1"?>
<!-- Generator: Adobe Illustrator 19.0.0, SVG Export Plug-In . SVG Version: 6.00 Build 0)  -->
<svg version="1.1" id="Layer_1" xmlns="http://www.w3.org/2000/svg" xmlns:xlink="http://www.w3.org/1999/xlink" x="0px" y="0px"
	 viewBox="0 0 364.879 364.879" style="enable-background:new 0 0 364.879 364.879;" xml:space="preserve">
<g id="XMLID_1236_">
	<circle id="XMLID_1237_" style="fill:#FFFEB9;" cx="182.439" cy="182.439" r="167.44"/>
	<g id="XMLID_1238_">
		<g id="XMLID_1239_">
			<circle id="XMLID_1240_" style="fill:#FF5959;" cx="182.439" cy="40.127" r="37.618"/>
			<circle id="XMLID_1241_" style="fill:#FF5959;" cx="182.439" cy="324.752" r="37.618"/>
		</g>
		<g id="XMLID_1242_">
			<circle id="XMLID_592_" style="fill:#FF5959;" cx="81.81" cy="81.809" r="37.618"/>
			<circle id="XMLID_591_" style="fill:#FF5959;" cx="283.07" cy="283.07" r="37.618"/>
		</g>
		<g id="XMLID_1243_">
			<circle id="XMLID_589_" style="fill:#FF5959;" cx="283.07" cy="81.809" r="37.618"/>
			<circle id="XMLID_588_" style="fill:#FF5959;" cx="81.81" cy="283.07" r="37.618"/>
		</g>
		<g id="XMLID_1244_">
			<circle id="XMLID_586_" style="fill:#FF5959;" cx="324.753" cy="182.439" r="37.618"/>
			<circle id="XMLID_585_" style="fill:#FF5959;" cx="40.128" cy="182.439" r="37.618"/>
		</g>
	</g>
	<path id="XMLID_1245_" style="fill:#5FD2DB;" d="M219.859,120.077c-20.968,0-34.271,23.376-37.419,23.376
		c-2.753,0-15.511-23.376-37.42-23.376c-21.31,0-38.711,17.575-39.85,38.856c-0.642,12.022,3.233,21.17,8.695,29.457
		c10.91,16.556,58.614,56.412,68.645,56.412c10.248,0,57.522-39.712,68.504-56.412c5.474-8.325,9.338-17.436,8.695-29.457
		C258.57,137.652,241.171,120.077,219.859,120.077"/>
	<path id="XMLID_1246_" style="fill:#FFE165;" d="M182.439,364.879c-100.597,0-182.439-81.842-182.439-182.44S81.843,0,182.439,0
		s182.439,81.842,182.439,182.439S283.037,364.879,182.439,364.879z M182.439,30C98.385,30,30.001,98.384,30.001,182.439
		s68.384,152.439,152.439,152.439s152.439-68.384,152.439-152.439S266.495,30,182.439,30z"/>
</g>
<g>
</g>
<g>
</g>
<g>
</g>
<g>
</g>
<g>
</g>
<g>
</g>
<g>
</g>
<g>
</g>
<g>
</g>
<g>
</g>
<g>
</g>
<g>
</g>
<g>
</g>
<g>
</g>
<g>
</g>
</svg>
