<?xml version="1.0" encoding="iso-8859-1"?>
<!-- Generator: Adobe Illustrator 19.0.0, SVG Export Plug-In . SVG Version: 6.00 Build 0)  -->
<svg xmlns="http://www.w3.org/2000/svg" xmlns:xlink="http://www.w3.org/1999/xlink" version="1.1" id="Capa_1" x="0px" y="0px" viewBox="0 0 455 455" style="enable-background:new 0 0 455 455;" xml:space="preserve" width="512" height="512">
<g>
	<path style="fill:#CC8073;" d="M455,227.5c0-10.86-3.85-20.83-10.26-28.6c4.18-9.17,5.32-19.79,2.51-30.28s-9.11-19.12-17.31-24.97   c1.66-9.94,0.01-20.49-5.42-29.9s-13.75-16.11-23.18-19.64c-0.97-10.03-5.29-19.801-12.97-27.48s-17.45-12-27.48-12.97   c-3.53-9.43-10.23-17.75-19.64-23.18c-9.41-5.431-19.96-7.08-29.9-5.421V429.94c9.94,1.659,20.49,0.01,29.9-5.421   c9.41-5.43,16.11-13.75,19.64-23.18c10.03-0.97,19.8-5.29,27.48-12.97s12-17.45,12.97-27.48c9.43-3.529,17.75-10.229,23.18-19.64   s7.08-19.96,5.42-29.9c8.2-5.85,14.5-14.479,17.31-24.97s1.67-21.11-2.51-30.28C451.15,248.33,455,238.36,455,227.5z"/>
	<path style="fill:#E59F8F;" d="M416.1,198.9c5.56,7.77,8.9,17.74,8.9,28.6s-3.34,20.83-8.9,28.6c3.62,9.17,4.61,19.79,2.17,30.28   s-7.91,19.12-15.03,24.97c1.45,9.94,0.01,20.49-4.7,29.9c-4.71,9.41-11.93,16.11-20.13,19.64c-0.84,10.03-4.59,19.8-11.26,27.48   c-6.66,7.68-15.14,12-23.85,12.97c-3.06,9.43-8.88,17.75-17.05,23.18c-4.43,2.94-10.13,4.62-14.9,5.42   c-5.85,8.2-14.48,14.5-24.97,17.31s-21.11,1.67-30.28-2.51c-7.77,6.41-17.74,10.26-28.6,10.26s-20.83-3.85-28.6-10.26   c-9.17,4.18-19.79,5.32-30.28,2.51c-10.49-2.81-19.12-9.11-24.97-17.31c-9.94,1.66-20.49,0.01-29.9-5.42   c-9.41-5.43-16.11-13.75-19.64-23.18c-10.03-0.97-19.8-5.29-27.48-12.97s-12-17.45-12.97-27.48c-9.43-3.53-17.75-10.23-23.18-19.64   s-7.08-19.96-5.42-29.9c-8.2-5.85-14.5-14.48-17.31-24.97s-1.67-21.11,2.51-30.28C3.85,248.33,0,238.36,0,227.5   s3.85-20.83,10.26-28.6c-4.18-9.17-5.32-19.79-2.51-30.28c2.81-10.49,9.11-19.12,17.31-24.97c-1.66-9.94-0.01-20.49,5.42-29.9   s13.75-16.11,23.18-19.64c0.97-10.03,5.29-19.8,12.97-27.48s17.45-12,27.48-12.97c3.53-9.43,10.23-17.75,19.64-23.18   s19.96-7.08,29.9-5.42c5.85-8.2,14.48-14.5,24.97-17.31c10.49-2.81,21.11-1.67,30.28,2.51C206.67,3.85,216.64,0,227.5,0   s20.83,3.85,28.6,10.26c9.17-4.18,19.79-5.32,30.28-2.51s19.12,9.11,24.97,17.31c4.77,0.8,10.47,2.48,14.9,5.42   c8.17,5.43,13.99,13.75,17.05,23.18c8.71,0.97,17.19,5.29,23.85,12.97c6.67,7.68,10.42,17.45,11.26,27.48   c8.2,3.53,15.42,10.23,20.13,19.64c4.71,9.41,6.15,19.96,4.7,29.9c7.12,5.85,12.59,14.48,15.03,24.97   C420.71,179.11,419.72,189.73,416.1,198.9z"/>
	<path style="fill:#CB2E3E;" d="M276.48,141.73c-2.23,0-4.44,0.13-6.6,0.39L227.52,333.26c1.61-0.88,104.98-57.66,104.98-135.51   C332.5,166.81,307.42,141.73,276.48,141.73z"/>
	<path style="fill:#FF3B3B;" d="M269.88,142.12c21.19,3.29,37.62,26.94,37.62,55.63c0,77.72-78.51,134.45-79.98,135.51   c-0.02,0.01-105.02-57.05-105.02-135.51c0-30.94,25.08-56.02,56.02-56.02c21.09,0,39.43,11.68,48.98,28.91   C236.04,155.24,251.6,144.27,269.88,142.12z"/>
	<circle style="fill:#B26156;" cx="227.5" cy="41.927" r="7.5"/>
	<circle style="fill:#B26156;" cx="179.47" cy="48.251" r="7.5"/>
	<circle style="fill:#B26156;" cx="134.714" cy="66.789" r="7.5"/>
	<circle style="fill:#B26156;" cx="96.28" cy="96.28" r="7.5"/>
	<circle style="fill:#B26156;" cx="66.789" cy="134.714" r="7.5"/>
	<circle style="fill:#B26156;" cx="48.251" cy="179.47" r="7.5"/>
	<circle style="fill:#B26156;" cx="41.927" cy="227.5" r="7.5"/>
	<circle style="fill:#B26156;" cx="48.251" cy="275.53" r="7.5"/>
	<circle style="fill:#B26156;" cx="66.789" cy="320.286" r="7.5"/>
	<circle style="fill:#B26156;" cx="96.28" cy="358.72" r="7.5"/>
	<circle style="fill:#B26156;" cx="134.714" cy="388.211" r="7.5"/>
	<circle style="fill:#B26156;" cx="179.47" cy="406.749" r="7.5"/>
	<circle style="fill:#B26156;" cx="227.5" cy="413.073" r="7.5"/>
	<circle style="fill:#B26156;" cx="275.53" cy="406.749" r="7.5"/>
	<circle style="fill:#B26156;" cx="320.286" cy="388.211" r="7.5"/>
	<circle style="fill:#B26156;" cx="358.72" cy="358.72" r="7.5"/>
	<circle style="fill:#B26156;" cx="388.211" cy="320.286" r="7.5"/>
	<circle style="fill:#B26156;" cx="406.749" cy="275.53" r="7.5"/>
	<circle style="fill:#B26156;" cx="413.073" cy="227.5" r="7.5"/>
	<circle style="fill:#B26156;" cx="406.749" cy="179.47" r="7.5"/>
	<circle style="fill:#B26156;" cx="388.211" cy="134.714" r="7.5"/>
	<circle style="fill:#B26156;" cx="358.72" cy="96.28" r="7.5"/>
	<circle style="fill:#B26156;" cx="320.286" cy="66.789" r="7.5"/>
	<circle style="fill:#B26156;" cx="275.53" cy="48.251" r="7.5"/>
</g>















</svg>
